<mxfile host="Electron" modified="2024-07-17T09:17:19.455Z" agent="Mozilla/5.0 (Windows NT 10.0; Win64; x64) AppleWebKit/537.36 (KHTML, like Gecko) draw.io/24.6.4 Chrome/124.0.6367.207 Electron/30.0.6 Safari/537.36" etag="AfsSKd9mep6nhpLEYIR_" version="24.6.4" type="device">
  <diagram id="C5RBs43oDa-KdzZeNtuy" name="Page-1">
    <mxGraphModel dx="2261" dy="836" grid="1" gridSize="10" guides="1" tooltips="1" connect="1" arrows="1" fold="1" page="1" pageScale="1" pageWidth="827" pageHeight="1169" math="0" shadow="0">
      <root>
        <mxCell id="WIyWlLk6GJQsqaUBKTNV-0" />
        <mxCell id="WIyWlLk6GJQsqaUBKTNV-1" parent="WIyWlLk6GJQsqaUBKTNV-0" />
        <mxCell id="WIyWlLk6GJQsqaUBKTNV-2" value="" style="rounded=0;html=1;jettySize=auto;orthogonalLoop=1;fontSize=11;endArrow=block;endFill=0;endSize=8;strokeWidth=1;shadow=0;labelBackgroundColor=none;edgeStyle=orthogonalEdgeStyle;entryX=0.5;entryY=0;entryDx=0;entryDy=0;exitX=0.5;exitY=1;exitDx=0;exitDy=0;" parent="WIyWlLk6GJQsqaUBKTNV-1" source="L4a_Jw5t_VV2HeaiSzUU-47" edge="1">
          <mxGeometry relative="1" as="geometry">
            <mxPoint x="620" y="190" as="sourcePoint" />
            <mxPoint x="620" y="220" as="targetPoint" />
          </mxGeometry>
        </mxCell>
        <mxCell id="L4a_Jw5t_VV2HeaiSzUU-17" value="&lt;i&gt;&lt;font color=&quot;#00cc00&quot;&gt;check_occupancy_block_0&lt;/font&gt;&lt;/i&gt;&lt;div&gt;&lt;i&gt;&lt;br&gt;&lt;/i&gt;&lt;div&gt;&lt;span style=&quot;background-color: initial;&quot;&gt;skip_steps_0,&amp;nbsp;&lt;/span&gt;&lt;span style=&quot;background-color: initial;&quot;&gt;ouccpied_0&lt;/span&gt;&lt;/div&gt;&lt;/div&gt;" style="rounded=1;whiteSpace=wrap;html=1;absoluteArcSize=1;arcSize=14;strokeWidth=2;" vertex="1" parent="WIyWlLk6GJQsqaUBKTNV-1">
          <mxGeometry x="530" y="220" width="180" height="60" as="geometry" />
        </mxCell>
        <mxCell id="L4a_Jw5t_VV2HeaiSzUU-18" value="&lt;i&gt;&lt;font color=&quot;#00cc00&quot;&gt;check_occupancy_block_1&lt;/font&gt;&lt;/i&gt;&lt;div&gt;&lt;i&gt;&lt;br&gt;&lt;/i&gt;&lt;div&gt;&lt;span style=&quot;background-color: initial;&quot;&gt;skip_steps_1,&amp;nbsp;&lt;/span&gt;&lt;span style=&quot;background-color: initial;&quot;&gt;ouccpied_1&lt;/span&gt;&lt;/div&gt;&lt;/div&gt;" style="rounded=1;whiteSpace=wrap;html=1;absoluteArcSize=1;arcSize=14;strokeWidth=2;" vertex="1" parent="WIyWlLk6GJQsqaUBKTNV-1">
          <mxGeometry x="530" y="440" width="180" height="60" as="geometry" />
        </mxCell>
        <mxCell id="L4a_Jw5t_VV2HeaiSzUU-19" value="&lt;span style=&quot;color: rgb(255, 51, 51);&quot;&gt;ouccpied_0&lt;/span&gt;" style="strokeWidth=2;html=1;shape=mxgraph.flowchart.decision;whiteSpace=wrap;" vertex="1" parent="WIyWlLk6GJQsqaUBKTNV-1">
          <mxGeometry x="580" y="320" width="80" height="80" as="geometry" />
        </mxCell>
        <mxCell id="L4a_Jw5t_VV2HeaiSzUU-20" value="&lt;span style=&quot;color: rgb(255, 51, 51);&quot;&gt;ouccpied_1&lt;/span&gt;" style="strokeWidth=2;html=1;shape=mxgraph.flowchart.decision;whiteSpace=wrap;" vertex="1" parent="WIyWlLk6GJQsqaUBKTNV-1">
          <mxGeometry x="580" y="540" width="80" height="80" as="geometry" />
        </mxCell>
        <mxCell id="L4a_Jw5t_VV2HeaiSzUU-25" value="" style="rounded=0;html=1;jettySize=auto;orthogonalLoop=1;fontSize=11;endArrow=block;endFill=0;endSize=8;strokeWidth=1;shadow=0;labelBackgroundColor=none;edgeStyle=orthogonalEdgeStyle;exitX=0.5;exitY=1;exitDx=0;exitDy=0;entryX=0.5;entryY=0;entryDx=0;entryDy=0;entryPerimeter=0;" edge="1" parent="WIyWlLk6GJQsqaUBKTNV-1" source="L4a_Jw5t_VV2HeaiSzUU-17" target="L4a_Jw5t_VV2HeaiSzUU-19">
          <mxGeometry relative="1" as="geometry">
            <mxPoint x="630" y="180" as="sourcePoint" />
            <mxPoint x="630" y="230" as="targetPoint" />
          </mxGeometry>
        </mxCell>
        <mxCell id="L4a_Jw5t_VV2HeaiSzUU-26" value="" style="rounded=0;html=1;jettySize=auto;orthogonalLoop=1;fontSize=11;endArrow=block;endFill=0;endSize=8;strokeWidth=1;shadow=0;labelBackgroundColor=none;edgeStyle=orthogonalEdgeStyle;exitX=0.5;exitY=1;exitDx=0;exitDy=0;entryX=0.5;entryY=0;entryDx=0;entryDy=0;exitPerimeter=0;" edge="1" parent="WIyWlLk6GJQsqaUBKTNV-1" source="L4a_Jw5t_VV2HeaiSzUU-19" target="L4a_Jw5t_VV2HeaiSzUU-18">
          <mxGeometry relative="1" as="geometry">
            <mxPoint x="630" y="290" as="sourcePoint" />
            <mxPoint x="630" y="330" as="targetPoint" />
          </mxGeometry>
        </mxCell>
        <mxCell id="L4a_Jw5t_VV2HeaiSzUU-37" value="YES" style="edgeLabel;html=1;align=center;verticalAlign=middle;resizable=0;points=[];" vertex="1" connectable="0" parent="L4a_Jw5t_VV2HeaiSzUU-26">
          <mxGeometry x="-0.25" relative="1" as="geometry">
            <mxPoint x="20" as="offset" />
          </mxGeometry>
        </mxCell>
        <mxCell id="L4a_Jw5t_VV2HeaiSzUU-28" value="" style="rounded=0;html=1;jettySize=auto;orthogonalLoop=1;fontSize=11;endArrow=block;endFill=0;endSize=8;strokeWidth=1;shadow=0;labelBackgroundColor=none;edgeStyle=orthogonalEdgeStyle;exitX=0.5;exitY=1;exitDx=0;exitDy=0;entryX=0.5;entryY=0;entryDx=0;entryDy=0;entryPerimeter=0;" edge="1" parent="WIyWlLk6GJQsqaUBKTNV-1" source="L4a_Jw5t_VV2HeaiSzUU-18" target="L4a_Jw5t_VV2HeaiSzUU-20">
          <mxGeometry relative="1" as="geometry">
            <mxPoint x="630" y="290" as="sourcePoint" />
            <mxPoint x="630" y="330" as="targetPoint" />
          </mxGeometry>
        </mxCell>
        <mxCell id="L4a_Jw5t_VV2HeaiSzUU-32" value="" style="rounded=0;html=1;jettySize=auto;orthogonalLoop=1;fontSize=11;endArrow=block;endFill=0;endSize=8;strokeWidth=1;shadow=0;labelBackgroundColor=none;edgeStyle=orthogonalEdgeStyle;exitX=0.5;exitY=1;exitDx=0;exitDy=0;exitPerimeter=0;" edge="1" parent="WIyWlLk6GJQsqaUBKTNV-1" source="L4a_Jw5t_VV2HeaiSzUU-20">
          <mxGeometry relative="1" as="geometry">
            <mxPoint x="630" y="290" as="sourcePoint" />
            <mxPoint x="620" y="660" as="targetPoint" />
          </mxGeometry>
        </mxCell>
        <mxCell id="L4a_Jw5t_VV2HeaiSzUU-36" value="YES" style="edgeLabel;html=1;align=center;verticalAlign=middle;resizable=0;points=[];" vertex="1" connectable="0" parent="L4a_Jw5t_VV2HeaiSzUU-32">
          <mxGeometry x="-0.3581" y="-1" relative="1" as="geometry">
            <mxPoint x="21" as="offset" />
          </mxGeometry>
        </mxCell>
        <mxCell id="L4a_Jw5t_VV2HeaiSzUU-33" value="&lt;i&gt;&lt;font color=&quot;#00cc00&quot;&gt;check_occupancy_block_2&lt;/font&gt;&lt;/i&gt;&lt;div&gt;&lt;i&gt;&lt;br&gt;&lt;/i&gt;&lt;div&gt;&lt;span style=&quot;background-color: initial;&quot;&gt;skip_steps_2,&amp;nbsp;&lt;/span&gt;&lt;span style=&quot;background-color: initial;&quot;&gt;ouccpied_2&lt;/span&gt;&lt;/div&gt;&lt;/div&gt;" style="rounded=1;whiteSpace=wrap;html=1;absoluteArcSize=1;arcSize=14;strokeWidth=2;" vertex="1" parent="WIyWlLk6GJQsqaUBKTNV-1">
          <mxGeometry x="530" y="660" width="180" height="60" as="geometry" />
        </mxCell>
        <mxCell id="L4a_Jw5t_VV2HeaiSzUU-39" value="&lt;font color=&quot;#ff3333&quot;&gt;skip_steps_1&amp;nbsp;&lt;span style=&quot;background-color: initial;&quot;&gt;&amp;lt; skip_steps_0&lt;/span&gt;&lt;/font&gt;" style="strokeWidth=2;html=1;shape=mxgraph.flowchart.decision;whiteSpace=wrap;" vertex="1" parent="WIyWlLk6GJQsqaUBKTNV-1">
          <mxGeometry x="210" y="540" width="180" height="80" as="geometry" />
        </mxCell>
        <mxCell id="L4a_Jw5t_VV2HeaiSzUU-43" value="&lt;font color=&quot;#00cc00&quot;&gt;&lt;i&gt;skip_space_0&lt;/i&gt;&lt;/font&gt;&lt;div&gt;&lt;font color=&quot;#00cc00&quot;&gt;&lt;i&gt;&lt;br&gt;&lt;/i&gt;&lt;/font&gt;&lt;div&gt;ray_position&lt;/div&gt;&lt;/div&gt;" style="rounded=1;whiteSpace=wrap;html=1;absoluteArcSize=1;arcSize=14;strokeWidth=2;" vertex="1" parent="WIyWlLk6GJQsqaUBKTNV-1">
          <mxGeometry x="430" y="330" width="100" height="60" as="geometry" />
        </mxCell>
        <mxCell id="L4a_Jw5t_VV2HeaiSzUU-47" value="ray_position" style="shape=parallelogram;html=1;strokeWidth=2;perimeter=parallelogramPerimeter;whiteSpace=wrap;rounded=1;arcSize=12;size=0.23;" vertex="1" parent="WIyWlLk6GJQsqaUBKTNV-1">
          <mxGeometry x="570" y="140" width="100" height="30" as="geometry" />
        </mxCell>
        <mxCell id="L4a_Jw5t_VV2HeaiSzUU-51" value="" style="rounded=0;html=1;jettySize=auto;orthogonalLoop=1;fontSize=11;endArrow=block;endFill=0;endSize=8;strokeWidth=1;shadow=0;labelBackgroundColor=none;edgeStyle=orthogonalEdgeStyle;exitX=0;exitY=0.5;exitDx=0;exitDy=0;entryX=1;entryY=0.5;entryDx=0;entryDy=0;exitPerimeter=0;" edge="1" parent="WIyWlLk6GJQsqaUBKTNV-1" source="L4a_Jw5t_VV2HeaiSzUU-19" target="L4a_Jw5t_VV2HeaiSzUU-43">
          <mxGeometry relative="1" as="geometry">
            <mxPoint x="630" y="290" as="sourcePoint" />
            <mxPoint x="630" y="330" as="targetPoint" />
          </mxGeometry>
        </mxCell>
        <mxCell id="L4a_Jw5t_VV2HeaiSzUU-52" value="NO" style="edgeLabel;html=1;align=center;verticalAlign=middle;resizable=0;points=[];" vertex="1" connectable="0" parent="L4a_Jw5t_VV2HeaiSzUU-51">
          <mxGeometry x="-0.6348" y="5" relative="1" as="geometry">
            <mxPoint x="-11" y="-25" as="offset" />
          </mxGeometry>
        </mxCell>
        <mxCell id="L4a_Jw5t_VV2HeaiSzUU-56" value="&lt;font color=&quot;#00cc00&quot;&gt;&lt;i&gt;skip_space_1&lt;/i&gt;&lt;/font&gt;&lt;div&gt;&lt;font color=&quot;#00cc00&quot;&gt;&lt;i&gt;&lt;br&gt;&lt;/i&gt;&lt;/font&gt;&lt;div&gt;ray_position&lt;/div&gt;&lt;/div&gt;" style="rounded=1;whiteSpace=wrap;html=1;absoluteArcSize=1;arcSize=14;strokeWidth=2;" vertex="1" parent="WIyWlLk6GJQsqaUBKTNV-1">
          <mxGeometry x="430" y="550" width="100" height="60" as="geometry" />
        </mxCell>
        <mxCell id="L4a_Jw5t_VV2HeaiSzUU-61" value="" style="rounded=0;html=1;jettySize=auto;orthogonalLoop=1;fontSize=11;endArrow=block;endFill=0;endSize=8;strokeWidth=1;shadow=0;labelBackgroundColor=none;edgeStyle=orthogonalEdgeStyle;exitX=0.5;exitY=0;exitDx=0;exitDy=0;entryX=0;entryY=0.5;entryDx=0;entryDy=0;" edge="1" parent="WIyWlLk6GJQsqaUBKTNV-1" source="L4a_Jw5t_VV2HeaiSzUU-43" target="L4a_Jw5t_VV2HeaiSzUU-17">
          <mxGeometry relative="1" as="geometry">
            <mxPoint x="630" y="290" as="sourcePoint" />
            <mxPoint x="630" y="330" as="targetPoint" />
          </mxGeometry>
        </mxCell>
        <mxCell id="L4a_Jw5t_VV2HeaiSzUU-63" value="&lt;span style=&quot;color: rgb(255, 51, 51);&quot;&gt;ouccpied_2&lt;/span&gt;" style="strokeWidth=2;html=1;shape=mxgraph.flowchart.decision;whiteSpace=wrap;" vertex="1" parent="WIyWlLk6GJQsqaUBKTNV-1">
          <mxGeometry x="580" y="760" width="80" height="80" as="geometry" />
        </mxCell>
        <mxCell id="L4a_Jw5t_VV2HeaiSzUU-64" value="" style="rounded=0;html=1;jettySize=auto;orthogonalLoop=1;fontSize=11;endArrow=block;endFill=0;endSize=8;strokeWidth=1;shadow=0;labelBackgroundColor=none;edgeStyle=orthogonalEdgeStyle;exitX=0.5;exitY=1;exitDx=0;exitDy=0;exitPerimeter=0;" edge="1" parent="WIyWlLk6GJQsqaUBKTNV-1" source="L4a_Jw5t_VV2HeaiSzUU-63">
          <mxGeometry relative="1" as="geometry">
            <mxPoint x="630" y="510" as="sourcePoint" />
            <mxPoint x="620" y="880" as="targetPoint" />
          </mxGeometry>
        </mxCell>
        <mxCell id="L4a_Jw5t_VV2HeaiSzUU-65" value="YES" style="edgeLabel;html=1;align=center;verticalAlign=middle;resizable=0;points=[];" vertex="1" connectable="0" parent="L4a_Jw5t_VV2HeaiSzUU-64">
          <mxGeometry x="-0.3581" y="-1" relative="1" as="geometry">
            <mxPoint x="21" as="offset" />
          </mxGeometry>
        </mxCell>
        <mxCell id="L4a_Jw5t_VV2HeaiSzUU-66" value="" style="rounded=0;html=1;jettySize=auto;orthogonalLoop=1;fontSize=11;endArrow=block;endFill=0;endSize=8;strokeWidth=1;shadow=0;labelBackgroundColor=none;edgeStyle=orthogonalEdgeStyle;exitX=0.5;exitY=1;exitDx=0;exitDy=0;entryX=0.5;entryY=0;entryDx=0;entryDy=0;entryPerimeter=0;" edge="1" parent="WIyWlLk6GJQsqaUBKTNV-1" source="L4a_Jw5t_VV2HeaiSzUU-33" target="L4a_Jw5t_VV2HeaiSzUU-63">
          <mxGeometry relative="1" as="geometry">
            <mxPoint x="630" y="630" as="sourcePoint" />
            <mxPoint x="630" y="670" as="targetPoint" />
          </mxGeometry>
        </mxCell>
        <mxCell id="L4a_Jw5t_VV2HeaiSzUU-68" value="&lt;font color=&quot;#ff3333&quot;&gt;skip_steps_2&amp;nbsp;&lt;span style=&quot;background-color: initial;&quot;&gt;&amp;lt; skip_steps_1&lt;/span&gt;&lt;/font&gt;" style="strokeWidth=2;html=1;shape=mxgraph.flowchart.decision;whiteSpace=wrap;" vertex="1" parent="WIyWlLk6GJQsqaUBKTNV-1">
          <mxGeometry x="210" y="760" width="180" height="80" as="geometry" />
        </mxCell>
        <mxCell id="L4a_Jw5t_VV2HeaiSzUU-73" value="&lt;font color=&quot;#00cc00&quot;&gt;&lt;i&gt;skip_space_2&lt;/i&gt;&lt;/font&gt;&lt;div&gt;&lt;font color=&quot;#00cc00&quot;&gt;&lt;i&gt;&lt;br&gt;&lt;/i&gt;&lt;/font&gt;&lt;div&gt;ray_position&lt;/div&gt;&lt;/div&gt;" style="rounded=1;whiteSpace=wrap;html=1;absoluteArcSize=1;arcSize=14;strokeWidth=2;" vertex="1" parent="WIyWlLk6GJQsqaUBKTNV-1">
          <mxGeometry x="430" y="770" width="100" height="60" as="geometry" />
        </mxCell>
        <mxCell id="L4a_Jw5t_VV2HeaiSzUU-76" value="&lt;font color=&quot;#ff3333&quot;&gt;skip_steps_2&amp;nbsp;&lt;span style=&quot;background-color: initial;&quot;&gt;&amp;lt; skip_steps_0&lt;/span&gt;&lt;/font&gt;" style="strokeWidth=2;html=1;shape=mxgraph.flowchart.decision;whiteSpace=wrap;" vertex="1" parent="WIyWlLk6GJQsqaUBKTNV-1">
          <mxGeometry x="-10" y="760" width="180" height="80" as="geometry" />
        </mxCell>
        <mxCell id="L4a_Jw5t_VV2HeaiSzUU-82" value="" style="rounded=0;html=1;jettySize=auto;orthogonalLoop=1;fontSize=11;endArrow=block;endFill=0;endSize=8;strokeWidth=1;shadow=0;labelBackgroundColor=none;edgeStyle=orthogonalEdgeStyle;exitX=0;exitY=0.5;exitDx=0;exitDy=0;entryX=1;entryY=0.5;entryDx=0;entryDy=0;entryPerimeter=0;" edge="1" parent="WIyWlLk6GJQsqaUBKTNV-1" source="L4a_Jw5t_VV2HeaiSzUU-56" target="L4a_Jw5t_VV2HeaiSzUU-39">
          <mxGeometry relative="1" as="geometry">
            <mxPoint x="590" y="590" as="sourcePoint" />
            <mxPoint x="540" y="590" as="targetPoint" />
          </mxGeometry>
        </mxCell>
        <mxCell id="L4a_Jw5t_VV2HeaiSzUU-87" value="" style="rounded=0;html=1;jettySize=auto;orthogonalLoop=1;fontSize=11;endArrow=block;endFill=0;endSize=8;strokeWidth=1;shadow=0;labelBackgroundColor=none;edgeStyle=orthogonalEdgeStyle;exitX=0;exitY=0.5;exitDx=0;exitDy=0;entryX=1;entryY=0.5;entryDx=0;entryDy=0;exitPerimeter=0;" edge="1" parent="WIyWlLk6GJQsqaUBKTNV-1" source="L4a_Jw5t_VV2HeaiSzUU-63" target="L4a_Jw5t_VV2HeaiSzUU-73">
          <mxGeometry relative="1" as="geometry">
            <mxPoint x="590" y="590" as="sourcePoint" />
            <mxPoint x="540" y="590" as="targetPoint" />
          </mxGeometry>
        </mxCell>
        <mxCell id="L4a_Jw5t_VV2HeaiSzUU-88" value="NO" style="edgeLabel;html=1;align=center;verticalAlign=middle;resizable=0;points=[];" vertex="1" connectable="0" parent="L4a_Jw5t_VV2HeaiSzUU-87">
          <mxGeometry x="0.04" y="-1" relative="1" as="geometry">
            <mxPoint x="6" y="-19" as="offset" />
          </mxGeometry>
        </mxCell>
        <mxCell id="L4a_Jw5t_VV2HeaiSzUU-89" value="" style="rounded=0;html=1;jettySize=auto;orthogonalLoop=1;fontSize=11;endArrow=block;endFill=0;endSize=8;strokeWidth=1;shadow=0;labelBackgroundColor=none;edgeStyle=orthogonalEdgeStyle;exitX=0;exitY=0.5;exitDx=0;exitDy=0;" edge="1" parent="WIyWlLk6GJQsqaUBKTNV-1" source="L4a_Jw5t_VV2HeaiSzUU-73" target="L4a_Jw5t_VV2HeaiSzUU-68">
          <mxGeometry relative="1" as="geometry">
            <mxPoint x="440" y="590" as="sourcePoint" />
            <mxPoint x="400" y="590" as="targetPoint" />
          </mxGeometry>
        </mxCell>
        <mxCell id="L4a_Jw5t_VV2HeaiSzUU-90" value="" style="rounded=0;html=1;jettySize=auto;orthogonalLoop=1;fontSize=11;endArrow=block;endFill=0;endSize=8;strokeWidth=1;shadow=0;labelBackgroundColor=none;edgeStyle=orthogonalEdgeStyle;exitX=0;exitY=0.5;exitDx=0;exitDy=0;entryX=1;entryY=0.5;entryDx=0;entryDy=0;exitPerimeter=0;" edge="1" parent="WIyWlLk6GJQsqaUBKTNV-1" source="L4a_Jw5t_VV2HeaiSzUU-20" target="L4a_Jw5t_VV2HeaiSzUU-56">
          <mxGeometry relative="1" as="geometry">
            <mxPoint x="590" y="370" as="sourcePoint" />
            <mxPoint x="540" y="370" as="targetPoint" />
          </mxGeometry>
        </mxCell>
        <mxCell id="L4a_Jw5t_VV2HeaiSzUU-91" value="NO" style="edgeLabel;html=1;align=center;verticalAlign=middle;resizable=0;points=[];" vertex="1" connectable="0" parent="L4a_Jw5t_VV2HeaiSzUU-90">
          <mxGeometry x="-0.6348" y="5" relative="1" as="geometry">
            <mxPoint x="-11" y="-25" as="offset" />
          </mxGeometry>
        </mxCell>
        <mxCell id="L4a_Jw5t_VV2HeaiSzUU-92" value="" style="rounded=0;html=1;jettySize=auto;orthogonalLoop=1;fontSize=11;endArrow=block;endFill=0;endSize=8;strokeWidth=1;shadow=0;labelBackgroundColor=none;edgeStyle=orthogonalEdgeStyle;exitX=0;exitY=0.5;exitDx=0;exitDy=0;entryX=1;entryY=0.5;entryDx=0;entryDy=0;exitPerimeter=0;entryPerimeter=0;" edge="1" parent="WIyWlLk6GJQsqaUBKTNV-1" source="L4a_Jw5t_VV2HeaiSzUU-68" target="L4a_Jw5t_VV2HeaiSzUU-76">
          <mxGeometry relative="1" as="geometry">
            <mxPoint x="590" y="810" as="sourcePoint" />
            <mxPoint x="540" y="810" as="targetPoint" />
          </mxGeometry>
        </mxCell>
        <mxCell id="L4a_Jw5t_VV2HeaiSzUU-93" value="NO" style="edgeLabel;html=1;align=center;verticalAlign=middle;resizable=0;points=[];" vertex="1" connectable="0" parent="L4a_Jw5t_VV2HeaiSzUU-92">
          <mxGeometry x="0.04" y="-1" relative="1" as="geometry">
            <mxPoint x="6" y="-19" as="offset" />
          </mxGeometry>
        </mxCell>
        <mxCell id="L4a_Jw5t_VV2HeaiSzUU-94" value="" style="rounded=0;html=1;jettySize=auto;orthogonalLoop=1;fontSize=11;endArrow=block;endFill=0;endSize=8;strokeWidth=1;shadow=0;labelBackgroundColor=none;edgeStyle=orthogonalEdgeStyle;exitX=0.5;exitY=0;exitDx=0;exitDy=0;entryX=0;entryY=0.5;entryDx=0;entryDy=0;exitPerimeter=0;" edge="1" parent="WIyWlLk6GJQsqaUBKTNV-1" source="L4a_Jw5t_VV2HeaiSzUU-39" target="L4a_Jw5t_VV2HeaiSzUU-18">
          <mxGeometry relative="1" as="geometry">
            <mxPoint x="590" y="590" as="sourcePoint" />
            <mxPoint x="540" y="590" as="targetPoint" />
          </mxGeometry>
        </mxCell>
        <mxCell id="L4a_Jw5t_VV2HeaiSzUU-95" value="YES" style="edgeLabel;html=1;align=center;verticalAlign=middle;resizable=0;points=[];" vertex="1" connectable="0" parent="L4a_Jw5t_VV2HeaiSzUU-94">
          <mxGeometry x="-0.6348" y="5" relative="1" as="geometry">
            <mxPoint x="-15" y="35" as="offset" />
          </mxGeometry>
        </mxCell>
        <mxCell id="L4a_Jw5t_VV2HeaiSzUU-98" value="" style="rounded=0;html=1;jettySize=auto;orthogonalLoop=1;fontSize=11;endArrow=block;endFill=0;endSize=8;strokeWidth=1;shadow=0;labelBackgroundColor=none;edgeStyle=orthogonalEdgeStyle;exitX=0.5;exitY=0;exitDx=0;exitDy=0;entryX=0;entryY=0.5;entryDx=0;entryDy=0;exitPerimeter=0;" edge="1" parent="WIyWlLk6GJQsqaUBKTNV-1" source="L4a_Jw5t_VV2HeaiSzUU-68" target="L4a_Jw5t_VV2HeaiSzUU-33">
          <mxGeometry relative="1" as="geometry">
            <mxPoint x="310" y="550" as="sourcePoint" />
            <mxPoint x="540" y="480" as="targetPoint" />
          </mxGeometry>
        </mxCell>
        <mxCell id="L4a_Jw5t_VV2HeaiSzUU-99" value="YES" style="edgeLabel;html=1;align=center;verticalAlign=middle;resizable=0;points=[];" vertex="1" connectable="0" parent="L4a_Jw5t_VV2HeaiSzUU-98">
          <mxGeometry x="-0.6348" y="5" relative="1" as="geometry">
            <mxPoint x="-15" y="35" as="offset" />
          </mxGeometry>
        </mxCell>
        <mxCell id="L4a_Jw5t_VV2HeaiSzUU-107" value="" style="endArrow=none;html=1;rounded=0;exitX=0;exitY=0.5;exitDx=0;exitDy=0;exitPerimeter=0;edgeStyle=orthogonalEdgeStyle;" edge="1" parent="WIyWlLk6GJQsqaUBKTNV-1" source="L4a_Jw5t_VV2HeaiSzUU-76">
          <mxGeometry width="50" height="50" relative="1" as="geometry">
            <mxPoint x="280" y="530" as="sourcePoint" />
            <mxPoint x="180" y="250" as="targetPoint" />
            <Array as="points">
              <mxPoint x="-50" y="800" />
              <mxPoint x="-50" y="250" />
            </Array>
          </mxGeometry>
        </mxCell>
        <mxCell id="L4a_Jw5t_VV2HeaiSzUU-109" value="NO" style="edgeLabel;html=1;align=center;verticalAlign=middle;resizable=0;points=[];" vertex="1" connectable="0" parent="L4a_Jw5t_VV2HeaiSzUU-107">
          <mxGeometry x="-0.5585" y="-5" relative="1" as="geometry">
            <mxPoint x="15" y="121" as="offset" />
          </mxGeometry>
        </mxCell>
        <mxCell id="L4a_Jw5t_VV2HeaiSzUU-110" value="" style="endArrow=none;html=1;rounded=0;exitX=0;exitY=0.5;exitDx=0;exitDy=0;exitPerimeter=0;edgeStyle=orthogonalEdgeStyle;" edge="1" parent="WIyWlLk6GJQsqaUBKTNV-1" source="L4a_Jw5t_VV2HeaiSzUU-39">
          <mxGeometry width="50" height="50" relative="1" as="geometry">
            <mxPoint x="200" y="580" as="sourcePoint" />
            <mxPoint x="180" y="250" as="targetPoint" />
          </mxGeometry>
        </mxCell>
        <mxCell id="L4a_Jw5t_VV2HeaiSzUU-112" value="NO" style="edgeLabel;html=1;align=center;verticalAlign=middle;resizable=0;points=[];" vertex="1" connectable="0" parent="L4a_Jw5t_VV2HeaiSzUU-110">
          <mxGeometry x="-0.8999" y="3" relative="1" as="geometry">
            <mxPoint x="8" y="-23" as="offset" />
          </mxGeometry>
        </mxCell>
        <mxCell id="L4a_Jw5t_VV2HeaiSzUU-111" value="" style="endArrow=none;html=1;rounded=0;" edge="1" parent="WIyWlLk6GJQsqaUBKTNV-1">
          <mxGeometry width="50" height="50" relative="1" as="geometry">
            <mxPoint x="180" y="250" as="sourcePoint" />
            <mxPoint x="480" y="250" as="targetPoint" />
          </mxGeometry>
        </mxCell>
        <mxCell id="L4a_Jw5t_VV2HeaiSzUU-114" value="" style="endArrow=none;html=1;rounded=0;exitX=0.5;exitY=0;exitDx=0;exitDy=0;exitPerimeter=0;edgeStyle=orthogonalEdgeStyle;jumpStyle=arc;jumpSize=15;" edge="1" parent="WIyWlLk6GJQsqaUBKTNV-1" source="L4a_Jw5t_VV2HeaiSzUU-76">
          <mxGeometry width="50" height="50" relative="1" as="geometry">
            <mxPoint x="280" y="530" as="sourcePoint" />
            <mxPoint x="300" y="470" as="targetPoint" />
            <Array as="points">
              <mxPoint x="80" y="470" />
            </Array>
          </mxGeometry>
        </mxCell>
        <mxCell id="L4a_Jw5t_VV2HeaiSzUU-115" value="YES" style="edgeLabel;html=1;align=center;verticalAlign=middle;resizable=0;points=[];" vertex="1" connectable="0" parent="L4a_Jw5t_VV2HeaiSzUU-114">
          <mxGeometry x="-0.8157" y="-3" relative="1" as="geometry">
            <mxPoint x="-23" y="27" as="offset" />
          </mxGeometry>
        </mxCell>
        <mxCell id="L4a_Jw5t_VV2HeaiSzUU-116" value="&lt;div&gt;&lt;i&gt;&lt;font color=&quot;#00cc00&quot;&gt;check_intersection&lt;/font&gt;&lt;/i&gt;&lt;/div&gt;&lt;div&gt;&lt;i&gt;&lt;font color=&quot;#00cc00&quot;&gt;&lt;br&gt;&lt;/font&gt;&lt;/i&gt;&lt;div&gt;&lt;span style=&quot;background-color: initial;&quot;&gt;intersected, hit&lt;/span&gt;&lt;span style=&quot;background-color: initial;&quot;&gt;_position, hit_sample&lt;/span&gt;&lt;/div&gt;&lt;/div&gt;" style="rounded=1;whiteSpace=wrap;html=1;absoluteArcSize=1;arcSize=14;strokeWidth=2;" vertex="1" parent="WIyWlLk6GJQsqaUBKTNV-1">
          <mxGeometry x="530" y="880" width="180" height="70" as="geometry" />
        </mxCell>
        <mxCell id="L4a_Jw5t_VV2HeaiSzUU-117" value="&lt;span style=&quot;color: rgb(255, 51, 51);&quot;&gt;intersected&lt;/span&gt;" style="strokeWidth=2;html=1;shape=mxgraph.flowchart.decision;whiteSpace=wrap;" vertex="1" parent="WIyWlLk6GJQsqaUBKTNV-1">
          <mxGeometry x="580" y="980" width="80" height="80" as="geometry" />
        </mxCell>
        <mxCell id="L4a_Jw5t_VV2HeaiSzUU-118" value="" style="rounded=0;html=1;jettySize=auto;orthogonalLoop=1;fontSize=11;endArrow=block;endFill=0;endSize=8;strokeWidth=1;shadow=0;labelBackgroundColor=none;edgeStyle=orthogonalEdgeStyle;exitX=0.5;exitY=1;exitDx=0;exitDy=0;entryX=0.5;entryY=0;entryDx=0;entryDy=0;entryPerimeter=0;" edge="1" parent="WIyWlLk6GJQsqaUBKTNV-1" source="L4a_Jw5t_VV2HeaiSzUU-116" target="L4a_Jw5t_VV2HeaiSzUU-117">
          <mxGeometry relative="1" as="geometry">
            <mxPoint x="630" y="850" as="sourcePoint" />
            <mxPoint x="630" y="890" as="targetPoint" />
          </mxGeometry>
        </mxCell>
        <mxCell id="L4a_Jw5t_VV2HeaiSzUU-120" value="" style="rounded=0;html=1;jettySize=auto;orthogonalLoop=1;fontSize=11;endArrow=block;endFill=0;endSize=8;strokeWidth=1;shadow=0;labelBackgroundColor=none;edgeStyle=orthogonalEdgeStyle;exitX=0.5;exitY=1;exitDx=0;exitDy=0;exitPerimeter=0;entryX=0.5;entryY=0;entryDx=0;entryDy=0;" edge="1" parent="WIyWlLk6GJQsqaUBKTNV-1" source="L4a_Jw5t_VV2HeaiSzUU-117" target="L4a_Jw5t_VV2HeaiSzUU-124">
          <mxGeometry relative="1" as="geometry">
            <mxPoint x="630" y="960" as="sourcePoint" />
            <mxPoint x="620" y="1110" as="targetPoint" />
          </mxGeometry>
        </mxCell>
        <mxCell id="L4a_Jw5t_VV2HeaiSzUU-121" value="YES" style="edgeLabel;html=1;align=center;verticalAlign=middle;resizable=0;points=[];" vertex="1" connectable="0" parent="L4a_Jw5t_VV2HeaiSzUU-120">
          <mxGeometry x="-0.3268" y="-4" relative="1" as="geometry">
            <mxPoint x="24" as="offset" />
          </mxGeometry>
        </mxCell>
        <mxCell id="L4a_Jw5t_VV2HeaiSzUU-122" value="" style="rounded=0;html=1;jettySize=auto;orthogonalLoop=1;fontSize=11;endArrow=block;endFill=0;endSize=8;strokeWidth=1;shadow=0;labelBackgroundColor=none;edgeStyle=orthogonalEdgeStyle;exitX=0;exitY=0.5;exitDx=0;exitDy=0;exitPerimeter=0;entryX=0.5;entryY=1;entryDx=0;entryDy=0;" edge="1" parent="WIyWlLk6GJQsqaUBKTNV-1" source="L4a_Jw5t_VV2HeaiSzUU-117" target="L4a_Jw5t_VV2HeaiSzUU-73">
          <mxGeometry relative="1" as="geometry">
            <mxPoint x="630" y="1070" as="sourcePoint" />
            <mxPoint x="60" y="970" as="targetPoint" />
          </mxGeometry>
        </mxCell>
        <mxCell id="L4a_Jw5t_VV2HeaiSzUU-123" value="NO" style="edgeLabel;html=1;align=center;verticalAlign=middle;resizable=0;points=[];" vertex="1" connectable="0" parent="L4a_Jw5t_VV2HeaiSzUU-122">
          <mxGeometry x="-0.3268" y="-4" relative="1" as="geometry">
            <mxPoint x="38" y="-6" as="offset" />
          </mxGeometry>
        </mxCell>
        <mxCell id="L4a_Jw5t_VV2HeaiSzUU-124" value="hit_position&lt;div&gt;hit_sample&lt;/div&gt;" style="shape=parallelogram;html=1;strokeWidth=2;perimeter=parallelogramPerimeter;whiteSpace=wrap;rounded=1;arcSize=12;size=0.23;" vertex="1" parent="WIyWlLk6GJQsqaUBKTNV-1">
          <mxGeometry x="570" y="1110" width="100" height="60" as="geometry" />
        </mxCell>
      </root>
    </mxGraphModel>
  </diagram>
</mxfile>
